# Blender v2.78 (sub 0) OBJ File: ''
# www.blender.org
o Cube
v 0.500000 0.000000 -3.462491
v 0.500000 0.000000 2.500000
v -0.500000 0.000000 2.500000
v -0.500000 0.000000 -3.462492
v 0.500000 2.000000 -2.499999
v 0.500000 2.000000 2.500001
v -0.500000 2.000000 2.499999
v -0.500000 2.000000 -2.500000
v 0.500000 0.000000 -1.500000
v 0.500000 0.000000 -0.500000
v 0.500000 0.000000 0.500000
v 0.500000 0.000000 1.500000
v -0.500000 0.000000 1.499999
v -0.500000 0.000000 0.499999
v -0.500000 0.000000 -0.500001
v -0.500000 0.000000 -1.500001
v 0.500000 2.000000 -1.499999
v 0.500000 1.356606 -0.499999
v 0.500000 1.356606 0.500001
v 0.500000 2.000000 1.500001
v -0.500000 2.000000 1.499999
v -0.500000 1.356606 0.499999
v -0.500000 1.356606 -0.500000
v -0.500000 2.000000 -1.500000
v -0.098397 2.044942 -0.111496
v 0.500000 1.148068 -3.462491
v 0.500000 1.148068 2.500001
v -0.500000 1.148068 2.499999
v -0.500000 1.148068 -3.462492
v -0.500000 1.148068 1.499999
v -0.500000 0.778738 0.499999
v -0.500000 0.778738 -0.500001
v -0.500000 1.148068 -1.500000
v 0.500000 1.148068 -1.499999
v 0.500000 0.778738 -0.499999
v 0.500000 0.778738 0.500001
v 0.500000 1.148068 1.500001
vt 0.7143 0.8323
vt 0.5714 1.0000
vt 0.5714 0.8323
vt 0.8571 0.1677
vt 0.7143 0.0000
vt 0.8571 0.0000
vt 0.0000 0.1677
vt 0.1217 0.0000
vt 0.1217 0.1677
vt 1.0000 0.3354
vt 0.8571 0.1925
vt 1.0000 0.1925
vt 0.4074 0.3291
vt 0.2857 0.1614
vt 0.4074 0.0000
vt 1.0000 0.5280
vt 0.8571 0.3354
vt 1.0000 0.3354
vt 0.2857 1.0000
vt 0.4074 0.8323
vt 0.4074 1.0000
vt 0.3776 0.6646
vt 0.4602 0.6646
vt 0.3776 0.4969
vt 0.4602 0.4969
vt 0.0000 0.8386
vt 0.1217 0.6709
vt 0.1217 1.0000
vt 0.0919 0.5031
vt 0.1745 0.5031
vt 0.1745 0.3354
vt 0.0919 0.3354
vt 0.8571 0.8386
vt 0.7143 0.6709
vt 0.8571 0.6709
vt 0.7143 0.5031
vt 0.8571 0.5031
vt 0.7143 0.3354
vt 0.8571 0.3354
vt 0.7143 0.1677
vt 0.7143 0.0000
vt 0.5714 0.3291
vt 0.5714 0.0000
vt 0.7143 0.3291
vt 0.5714 0.4969
vt 0.7143 0.4969
vt 0.5714 0.6646
vt 0.7143 0.6646
vt 0.2857 0.1677
vt 0.2857 0.3354
vt 0.2857 0.5031
vt 0.2857 0.6709
vt 0.2857 1.0000
vt 0.8571 1.0000
vt 0.7143 0.8386
vt 0.8571 0.0000
vt 1.0000 0.0000
vt 0.2857 0.0000
vt 0.7143 1.0000
vt 0.0000 0.0000
vt 0.8571 0.3354
vt 0.2857 0.3291
vt 0.8571 0.5280
vt 0.2857 0.8323
vt 0.0000 0.6709
vt 0.7143 1.0000
vn 0.0000 -1.0000 0.0000
vn 0.0000 1.0000 0.0000
vn 1.0000 0.0000 0.0000
vn -0.0000 -0.0000 1.0000
vn -1.0000 -0.0000 -0.0000
vn 0.0000 0.0000 -1.0000
vn -0.0000 0.8410 0.5411
vn 0.0000 0.8410 -0.5411
vn 0.0000 0.7488 -0.6628
s off
f 12/1/1 3/2/1 13/3/1
f 20/4/2 7/5/2 6/6/2
f 20/7/3 27/8/3 37/9/3
f 6/10/4 28/11/4 27/12/4
f 33/13/5 8/14/5 29/15/5
f 1/16/6 29/17/6 26/18/6
f 7/19/5 30/20/5 28/21/5
f 30/20/5 22/22/5 31/23/5
f 31/23/5 23/24/5 32/25/5
f 23/24/5 33/13/5 32/25/5
f 5/26/3 34/27/3 26/28/3
f 34/27/3 18/29/3 35/30/3
f 18/29/3 36/31/3 35/30/3
f 19/32/3 37/9/3 36/31/3
f 5/33/2 24/34/2 17/35/2
f 17/35/7 23/36/7 18/37/7
f 18/37/2 22/38/2 19/39/2
f 19/39/8 21/40/8 20/4/8
f 1/41/1 16/42/1 4/43/1
f 9/44/1 15/45/1 16/42/1
f 10/46/1 14/47/1 15/45/1
f 11/48/1 13/3/1 14/47/1
f 36/31/3 12/49/3 11/50/3
f 35/30/3 11/50/3 10/51/3
f 9/52/3 35/30/3 10/51/3
f 26/28/3 9/52/3 1/53/3
f 32/25/5 16/42/5 15/45/5
f 31/23/5 15/45/5 14/47/5
f 13/3/5 31/23/5 14/47/5
f 28/21/5 13/3/5 3/2/5
f 26/54/9 8/55/9 5/33/9
f 16/42/5 29/15/5 4/43/5
f 27/12/4 3/56/4 2/57/4
f 37/9/3 2/58/3 12/49/3
f 12/1/1 2/59/1 3/2/1
f 20/4/2 21/40/2 7/5/2
f 20/7/3 6/60/3 27/8/3
f 6/10/4 7/61/4 28/11/4
f 33/13/5 24/62/5 8/14/5
f 1/16/6 4/63/6 29/17/6
f 7/19/5 21/64/5 30/20/5
f 30/20/5 21/64/5 22/22/5
f 31/23/5 22/22/5 23/24/5
f 23/24/5 24/62/5 33/13/5
f 5/26/3 17/65/3 34/27/3
f 34/27/3 17/65/3 18/29/3
f 18/29/3 19/32/3 36/31/3
f 19/32/3 20/7/3 37/9/3
f 5/33/2 8/55/2 24/34/2
f 17/35/7 24/34/7 23/36/7
f 18/37/2 23/36/2 22/38/2
f 19/39/8 22/38/8 21/40/8
f 1/41/1 9/44/1 16/42/1
f 9/44/1 10/46/1 15/45/1
f 10/46/1 11/48/1 14/47/1
f 11/48/1 12/1/1 13/3/1
f 36/31/3 37/9/3 12/49/3
f 35/30/3 36/31/3 11/50/3
f 9/52/3 34/27/3 35/30/3
f 26/28/3 34/27/3 9/52/3
f 32/25/5 33/13/5 16/42/5
f 31/23/5 32/25/5 15/45/5
f 13/3/5 30/20/5 31/23/5
f 28/21/5 30/20/5 13/3/5
f 26/54/9 29/66/9 8/55/9
f 16/42/5 33/13/5 29/15/5
f 27/12/4 28/11/4 3/56/4
f 37/9/3 27/8/3 2/58/3
