# Blender v2.78 (sub 0) OBJ File: 'trackWorld1.blend'
# www.blender.org
o Cube_Cube.001
v 98.815414 -2.101141 128.341476
v 98.815414 2.101074 128.341476
v 113.356323 -2.101141 128.341476
v 113.356323 2.101074 128.341476
v 113.356323 -2.101141 124.139267
v 113.356323 2.101074 124.139267
v 98.643494 17.528160 128.341476
v 103.017624 20.051226 124.139267
v 103.017624 20.051226 128.341476
v 98.815414 23.888790 128.341476
v 98.815414 23.888790 124.139267
v 100.741547 22.689543 124.139267
v 100.741547 22.689543 128.341476
v 83.284187 20.787975 128.341476
v 83.284187 25.674835 128.341476
v 83.284187 25.674835 124.139267
v 96.870003 23.888790 124.139267
v 94.928604 23.888790 124.139267
v 92.987198 23.888790 124.139267
v 91.045792 23.888790 124.139267
v 89.104393 23.888790 124.139267
v 87.162987 23.888790 124.139267
v 85.221588 25.674835 124.139267
v 85.221588 25.674835 128.341476
v 87.162987 23.888790 128.341476
v 89.104393 23.888790 128.341476
v 91.045792 23.888790 128.341476
v 92.987198 23.888790 128.341476
v 94.928604 23.888790 128.341476
v 96.870003 23.888790 128.341476
v 110.148766 4.367506 126.398781
v 101.353195 4.367506 126.398781
v 105.654739 12.170082 126.398781
v 101.353195 12.170083 126.398781
v 101.353195 4.367506 123.371605
v 101.353195 12.170083 123.371605
v 105.654739 12.170082 123.371605
v 85.221588 20.787975 128.341476
v 87.162987 20.051226 128.341476
v 89.104393 20.051226 128.341476
v 91.045792 20.051226 128.341476
v 92.987198 20.051226 128.341476
v 94.928604 20.051226 128.341476
v 96.870003 20.051226 128.341476
v 98.815414 28.247570 128.341476
v 98.815414 25.120298 124.139267
v 96.870003 28.247570 128.341476
v 96.870003 25.120298 124.139267
v 94.928604 25.120298 124.139267
v 92.987198 25.120298 124.139267
v 91.045792 25.120298 124.139267
v 89.104393 25.120298 124.139267
v 89.104393 28.247570 128.341476
v 91.045792 28.247570 128.341476
v 92.987198 28.247570 128.341476
v 94.928604 28.247570 128.341476
v 106.251518 14.436513 124.139267
v 106.251518 14.436514 128.341476
v 98.815414 14.436513 128.341476
v 110.148766 4.367506 123.371605
v 98.815414 -2.101141 124.773888
v 99.451019 -2.101141 124.139267
v 98.815414 2.101074 124.773888
v 99.451019 2.101074 124.139267
v 99.267067 17.744619 124.139267
v 98.643494 17.528160 124.773888
v 83.284187 21.891560 124.139267
v 83.284187 20.787975 124.773888
v 96.870003 20.051226 124.773888
v 96.870003 21.154810 124.139267
v 94.928604 20.051226 124.773888
v 94.928604 21.154810 124.139267
v 92.987198 20.051226 124.773888
v 92.987198 21.154810 124.139267
v 91.045792 20.051226 124.773888
v 91.045792 21.154810 124.139267
v 89.104393 20.051226 124.773888
v 89.104393 21.154810 124.139267
v 87.162987 20.051226 124.773888
v 87.162987 21.154810 124.139267
v 85.221588 21.891560 124.139267
v 85.221588 20.787975 124.773888
v 98.815414 14.436514 124.773888
v 99.451019 14.436514 124.139267
v 68.147568 -2.101141 128.341476
v 68.147568 2.101074 128.341476
v 53.606655 -2.101141 128.341476
v 53.606655 2.101074 128.341476
v 53.606655 -2.101141 124.139267
v 53.606655 2.101074 124.139267
v 68.319489 17.528160 128.341476
v 63.945354 20.051226 124.139267
v 63.945354 20.051226 128.341476
v 68.147568 23.888790 128.341476
v 68.147568 23.888790 124.139267
v 66.221436 22.689543 124.139267
v 66.221436 22.689543 128.341476
v 83.678795 20.787975 128.341476
v 83.678795 25.674835 128.341476
v 83.678795 25.674835 124.139267
v 70.092979 23.888790 124.139267
v 72.034378 23.888790 124.139267
v 73.975784 23.888790 124.139267
v 75.917191 23.888790 124.139267
v 77.858589 23.888790 124.139267
v 79.799995 23.888790 124.139267
v 81.741394 25.674835 124.139267
v 81.741394 25.674835 128.341476
v 79.799995 23.888790 128.341476
v 77.858589 23.888790 128.341476
v 75.917191 23.888790 128.341476
v 73.975784 23.888790 128.341476
v 72.034378 23.888790 128.341476
v 70.092979 23.888790 128.341476
v 56.814217 4.367506 126.398781
v 65.609787 4.367506 126.398781
v 61.308247 12.170082 126.398781
v 65.609787 12.170083 126.398781
v 65.609787 4.367506 123.371605
v 65.609787 12.170083 123.371605
v 61.308247 12.170082 123.371605
v 81.741394 20.787975 128.341476
v 79.799995 20.051226 128.341476
v 77.858589 20.051226 128.341476
v 75.917191 20.051226 128.341476
v 73.975784 20.051226 128.341476
v 72.034378 20.051226 128.341476
v 70.092979 20.051226 128.341476
v 68.147568 28.247570 128.341476
v 68.147568 25.120298 124.139267
v 70.092979 28.247570 128.341476
v 70.092979 25.120298 124.139267
v 72.034378 25.120298 124.139267
v 73.975784 25.120298 124.139267
v 75.917191 25.120298 124.139267
v 77.858589 25.120298 124.139267
v 77.858589 28.247570 128.341476
v 75.917191 28.247570 128.341476
v 73.975784 28.247570 128.341476
v 72.034378 28.247570 128.341476
v 60.711464 14.436513 124.139267
v 60.711464 14.436514 128.341476
v 68.147568 14.436513 128.341476
v 56.814217 4.367506 123.371605
v 68.147568 -2.101141 124.773888
v 67.511963 -2.101141 124.139267
v 68.147568 2.101074 124.773888
v 67.511963 2.101074 124.139267
v 67.695915 17.744619 124.139267
v 68.319489 17.528160 124.773888
v 83.678795 21.891560 124.139267
v 83.678795 20.787975 124.773888
v 70.092979 20.051226 124.773888
v 70.092979 21.154810 124.139267
v 72.034378 20.051226 124.773888
v 72.034378 21.154810 124.139267
v 73.975784 20.051226 124.773888
v 73.975784 21.154810 124.139267
v 75.917191 20.051226 124.773888
v 75.917191 21.154810 124.139267
v 77.858589 20.051226 124.773888
v 77.858589 21.154810 124.139267
v 79.799995 20.051226 124.773888
v 79.799995 21.154810 124.139267
v 81.741394 21.891560 124.139267
v 81.741394 20.787975 124.773888
v 68.147568 14.436514 124.773888
v 67.511963 14.436514 124.139267
vt 0.4402 0.1491
vt 0.0051 0.0176
vt 0.4402 0.0176
vt 0.9756 0.1023
vt 0.9099 0.3293
vt 0.9099 0.1023
vt 0.0051 0.1491
vt 0.0051 0.0176
vt 0.8854 0.7683
vt 0.9460 0.8867
vt 0.8854 0.8867
vt 0.3286 0.7107
vt 0.3998 0.7933
vt 0.3286 0.7107
vt 0.2274 0.5350
vt 0.2274 0.5350
vt 0.4459 0.6386
vt 0.3998 0.7933
vt 0.4601 0.8308
vt 0.5209 0.7453
vt 0.5209 0.8308
vt 0.5686 0.1587
vt 0.5154 0.0434
vt 0.5686 0.0434
vt 0.9756 0.6599
vt 0.9099 0.6955
vt 0.9099 0.6599
vt 0.5817 0.8308
vt 0.4402 0.5350
vt 0.5817 0.7453
vt 0.6424 0.8308
vt 0.6424 0.7453
vt 0.7032 0.8308
vt 0.7032 0.7453
vt 0.7639 0.8308
vt 0.7639 0.7453
vt 0.8246 0.8308
vt 0.3806 0.2200
vt 0.1677 0.2672
vt 0.1054 0.2200
vt 0.9756 0.3863
vt 0.9099 0.3863
vt 0.9756 0.4430
vt 0.9099 0.4787
vt 0.9099 0.4430
vt 0.9756 0.4787
vt 0.9099 0.5145
vt 0.9756 0.5145
vt 0.9099 0.5502
vt 0.9756 0.5502
vt 0.9099 0.5859
vt 0.9756 0.5859
vt 0.9099 0.6217
vt 0.9756 0.6217
vt 0.7032 0.8308
vt 0.7032 0.8693
vt 0.7032 0.9672
vt 0.6307 0.2122
vt 0.5154 0.2655
vt 0.5154 0.2122
vt 0.6307 0.1588
vt 0.5154 0.2121
vt 0.5154 0.1588
vt 0.4601 0.8308
vt 0.5209 0.9672
vt 0.5209 0.8308
vt 0.6942 0.1587
vt 0.6410 0.0434
vt 0.6942 0.0434
vt 0.6410 0.1587
vt 0.4601 0.8693
vt 0.4601 0.9672
vt 0.5817 0.8693
vt 0.6424 0.9672
vt 0.5817 0.9672
vt 0.7639 0.9672
vt 0.5209 0.8693
vt 0.5817 0.8308
vt 0.6424 0.8308
vt 0.7639 0.8308
vt 0.7639 0.8693
vt 0.6424 0.8693
vt 0.0051 0.1491
vt 0.4601 0.1491
vt 0.4601 0.5350
vt 0.9460 0.7338
vt 0.8854 0.7338
vt 0.5209 0.7107
vt 0.4654 0.6318
vt 0.5817 0.7107
vt 0.6424 0.7107
vt 0.7032 0.7107
vt 0.7639 0.7107
vt 0.8246 0.7107
vt 0.8246 0.7453
vt 0.9099 0.0249
vt 0.9756 0.0249
vt 0.3806 0.4641
vt 0.2461 0.4641
vt 0.3363 0.2677
vt 0.2542 0.4165
vt 0.1685 0.2677
vt 0.2533 0.4169
vt 0.3361 0.2672
vt 0.3361 0.4159
vt 0.0051 0.0176
vt 0.4402 0.1491
vt 0.4402 0.0176
vt 0.9099 0.3293
vt 0.9756 0.1023
vt 0.9099 0.1023
vt 0.0051 0.0176
vt 0.0051 0.1491
vt 0.9460 0.8867
vt 0.8854 0.7683
vt 0.8854 0.8867
vt 0.3998 0.7933
vt 0.3286 0.7107
vt 0.3286 0.7107
vt 0.2274 0.5350
vt 0.2274 0.5350
vt 0.3998 0.7933
vt 0.4459 0.6386
vt 0.4601 0.8308
vt 0.5209 0.7453
vt 0.5154 0.0434
vt 0.5686 0.1587
vt 0.5686 0.0434
vt 0.9099 0.6955
vt 0.9756 0.6599
vt 0.9099 0.6599
vt 0.5817 0.8308
vt 0.5209 0.8308
vt 0.4402 0.5350
vt 0.6424 0.8308
vt 0.5817 0.7453
vt 0.7032 0.8308
vt 0.6424 0.7453
vt 0.7639 0.8308
vt 0.7032 0.7453
vt 0.8246 0.8308
vt 0.7639 0.7453
vt 0.8246 0.7453
vt 0.1677 0.2672
vt 0.3806 0.2200
vt 0.1054 0.2200
vt 0.9756 0.3863
vt 0.9756 0.3293
vt 0.9099 0.4787
vt 0.9756 0.4430
vt 0.9099 0.4430
vt 0.9099 0.5145
vt 0.9756 0.4787
vt 0.9099 0.5502
vt 0.9756 0.5145
vt 0.9099 0.5859
vt 0.9756 0.5502
vt 0.9099 0.6217
vt 0.9756 0.5859
vt 0.9756 0.6217
vt 0.7032 0.8308
vt 0.7032 0.8693
vt 0.5154 0.2655
vt 0.6307 0.2122
vt 0.5154 0.2122
vt 0.5154 0.2121
vt 0.6307 0.1588
vt 0.5154 0.1588
vt 0.5209 0.9672
vt 0.4601 0.8308
vt 0.5209 0.8308
vt 0.6410 0.0434
vt 0.6942 0.1587
vt 0.6942 0.0434
vt 0.6410 0.1587
vt 0.4601 0.8693
vt 0.4601 0.9672
vt 0.6424 0.9672
vt 0.5817 0.8693
vt 0.5817 0.9672
vt 0.7639 0.9672
vt 0.7032 0.9672
vt 0.5209 0.8693
vt 0.5817 0.8308
vt 0.6424 0.8308
vt 0.7639 0.8693
vt 0.7639 0.8308
vt 0.6424 0.8693
vt 0.9099 0.3863
vt 0.0051 0.1491
vt 0.4601 0.1491
vt 0.4601 0.5350
vt 0.9460 0.7338
vt 0.8854 0.7338
vt 0.5209 0.7107
vt 0.4654 0.6318
vt 0.5817 0.7107
vt 0.6424 0.7107
vt 0.7032 0.7107
vt 0.7639 0.7107
vt 0.8246 0.7107
vt 0.9099 0.0249
vt 0.9756 0.0249
vt 0.3806 0.4641
vt 0.2542 0.4165
vt 0.3363 0.2677
vt 0.1685 0.2677
vt 0.2533 0.4169
vt 0.2461 0.4641
vt 0.3361 0.2672
vt 0.3361 0.4159
vt 0.9756 0.3293
vt 0.9460 0.7683
vt 0.5154 0.1587
vt 0.9756 0.6955
vt 0.6307 0.2655
vt 0.6307 0.2121
vt 0.4601 0.0176
vt 0.3363 0.4165
vt 0.9460 0.7683
vt 0.5154 0.1587
vt 0.9756 0.6955
vt 0.6307 0.2655
vt 0.6307 0.2121
vt 0.4601 0.0176
vt 0.3363 0.4165
vn 0.0000 0.0000 -1.0000
vn -1.0000 0.0000 0.0000
vn 1.0000 0.0000 0.0000
vn 0.7572 0.6532 0.0000
vn 0.8665 0.4991 0.0000
vn 0.5285 0.8489 0.0000
vn 0.0000 1.0000 0.0000
vn 0.0000 -1.0000 0.0000
vn -0.9985 -0.0555 0.0000
vn -0.3548 -0.9349 0.0000
vn 0.0000 0.0000 1.0000
vn 0.6770 0.7359 0.0000
vn 0.0000 0.8022 -0.5970
vn -0.8181 -0.5751 0.0000
vn -0.3743 0.0000 -0.9273
vn -0.7066 0.0000 -0.7077
vn -0.7065 0.0000 -0.7077
vn 0.0000 -0.4985 -0.8669
vn -0.5785 -0.4066 -0.7071
vn -0.1859 -0.4898 -0.8518
vn -0.7060 -0.0393 -0.7071
vn 0.0000 0.3208 -0.9471
vn 0.3658 0.2107 -0.9065
vn 0.0000 -0.3208 -0.9471
vn -0.8665 -0.4991 0.0000
vn -0.7572 0.6532 0.0000
vn -0.8665 0.4991 0.0000
vn -0.5285 0.8489 0.0000
vn 0.9985 -0.0555 0.0000
vn 0.3548 -0.9349 0.0000
vn -0.6770 0.7359 0.0000
vn 0.8181 -0.5751 0.0000
vn 0.3743 0.0000 -0.9273
vn 0.7066 0.0000 -0.7077
vn 0.7065 0.0000 -0.7077
vn 0.5785 -0.4066 -0.7071
vn 0.1859 -0.4898 -0.8518
vn 0.7060 -0.0393 -0.7071
vn -0.3659 0.2107 -0.9065
vn 0.8665 -0.4991 0.0000
vn -0.3742 0.0000 -0.9273
vn -0.7066 0.0000 -0.7076
vn 0.3659 0.2107 -0.9065
vn 0.3742 0.0000 -0.9273
vn 0.7066 0.0000 -0.7076
vn -0.3658 0.2107 -0.9065
s off
f 64/1/1 5/2/1 62/3/1
f 2/4/2 83/5/2 63/6/2
f 6/7/3 3/8/3 5/2/3
f 81/9/1 16/10/1 23/11/1
f 8/12/4 13/13/4 9/14/4
f 57/15/5 9/14/5 58/16/5
f 65/17/1 12/18/1 8/12/1
f 11/19/6 13/13/6 12/18/6
f 11/19/1 70/20/1 17/21/1
f 23/22/7 15/23/7 24/24/7
f 38/25/8 68/26/8 82/27/8
f 70/20/1 18/28/1 17/21/1
f 84/29/1 8/12/1 57/15/1
f 72/30/1 19/31/1 18/28/1
f 74/32/1 20/33/1 19/31/1
f 76/34/1 21/35/1 20/33/1
f 78/36/1 22/37/1 21/35/1
f 22/37/1 81/9/1 23/11/1
f 35/38/7 31/39/7 60/40/7
f 83/5/9 7/41/9 66/42/9
f 44/43/8 71/44/8 69/45/8
f 43/46/8 73/47/8 71/44/8
f 42/48/8 75/49/8 73/47/8
f 41/50/8 77/51/8 75/49/8
f 40/52/8 79/53/8 77/51/8
f 39/54/10 82/27/10 79/53/10
f 27/55/3 51/56/3 54/57/3
f 17/58/7 29/59/7 30/60/7
f 21/35/1 51/56/1 20/33/1
f 19/61/7 27/62/7 28/63/7
f 10/64/11 47/65/11 30/66/11
f 21/67/7 25/68/7 26/69/7
f 22/70/12 24/24/12 25/68/12
f 46/71/13 47/65/13 45/72/13
f 49/73/13 55/74/13 56/75/13
f 51/56/13 53/76/13 54/57/13
f 10/64/3 46/71/3 45/72/3
f 30/66/2 48/77/2 17/21/2
f 29/78/11 55/74/11 28/79/11
f 26/80/2 52/81/2 21/35/2
f 19/31/1 49/73/1 18/28/1
f 29/78/3 49/73/3 56/75/3
f 27/55/11 53/76/11 26/80/11
f 28/79/2 50/82/2 19/31/2
f 17/21/1 46/71/1 11/19/1
f 7/41/14 69/45/14 66/42/14
f 6/7/5 58/16/5 4/83/5
f 84/29/15 35/38/15 64/1/15
f 62/3/16 63/84/16 64/1/16
f 64/1/17 83/85/17 84/29/17
f 68/86/18 81/9/18 82/87/18
f 69/88/19 65/17/19 66/89/19
f 71/90/18 70/20/18 69/88/18
f 73/91/18 72/30/18 71/90/18
f 75/92/18 74/32/18 73/91/18
f 77/93/18 76/34/18 75/92/18
f 79/94/18 78/36/18 77/93/18
f 82/87/20 80/95/20 79/94/20
f 84/29/21 66/89/21 65/17/21
f 2/4/2 61/96/2 1/97/2
f 57/15/22 36/98/22 84/29/22
f 57/15/23 60/40/23 37/99/23
f 64/1/24 60/40/24 6/7/24
f 32/100/1 33/101/1 31/102/1
f 60/40/25 33/103/25 37/99/25
f 36/98/3 32/104/3 35/38/3
f 37/99/8 34/105/8 36/98/8
f 89/106/1 148/107/1 146/108/1
f 167/109/3 86/110/3 147/111/3
f 87/112/2 90/113/2 89/106/2
f 100/114/1 165/115/1 107/116/1
f 97/117/26 92/118/26 93/119/26
f 93/119/27 141/120/27 142/121/27
f 96/122/1 149/123/1 92/118/1
f 97/117/28 95/124/28 96/122/28
f 95/124/1 154/125/1 149/123/1
f 99/126/7 107/127/7 108/128/7
f 152/129/8 122/130/8 166/131/8
f 102/132/1 154/125/1 101/133/1
f 92/118/1 168/134/1 141/120/1
f 103/135/1 156/136/1 102/132/1
f 104/137/1 158/138/1 103/135/1
f 105/139/1 160/140/1 104/137/1
f 106/141/1 162/142/1 105/139/1
f 106/141/1 165/115/1 164/143/1
f 115/144/7 119/145/7 144/146/7
f 167/109/29 91/147/29 143/148/29
f 155/149/8 128/150/8 153/151/8
f 157/152/8 127/153/8 155/149/8
f 159/154/8 126/155/8 157/152/8
f 161/156/8 125/157/8 159/154/8
f 163/158/8 124/159/8 161/156/8
f 166/131/30 123/160/30 163/158/30
f 111/161/2 135/162/2 104/137/2
f 113/163/7 101/164/7 114/165/7
f 135/162/1 105/139/1 104/137/1
f 111/166/7 103/167/7 112/168/7
f 131/169/11 94/170/11 114/171/11
f 109/172/7 105/173/7 110/174/7
f 108/128/31 106/175/31 109/172/31
f 131/169/13 130/176/13 129/177/13
f 139/178/13 133/179/13 140/180/13
f 137/181/13 135/162/13 138/182/13
f 94/170/2 130/176/2 95/124/2
f 132/183/3 114/171/3 101/133/3
f 139/178/11 113/184/11 112/185/11
f 136/186/3 110/187/3 105/139/3
f 133/179/1 103/135/1 102/132/1
f 113/184/2 133/179/2 102/132/2
f 137/181/11 111/161/11 110/187/11
f 134/188/3 112/185/3 103/135/3
f 130/176/1 101/133/1 95/124/1
f 153/151/32 91/147/32 150/189/32
f 142/121/27 90/113/27 88/190/27
f 119/145/33 168/134/33 148/107/33
f 147/191/34 146/108/34 148/107/34
f 167/192/35 148/107/35 168/134/35
f 165/115/18 152/193/18 166/194/18
f 149/123/36 153/195/36 150/196/36
f 154/125/18 155/197/18 153/195/18
f 156/136/18 157/198/18 155/197/18
f 158/138/18 159/199/18 157/198/18
f 160/140/18 161/200/18 159/199/18
f 162/142/18 163/201/18 161/200/18
f 164/143/37 166/194/37 163/201/37
f 150/196/38 168/134/38 149/123/38
f 145/202/3 86/110/3 85/203/3
f 120/204/22 141/120/22 168/134/22
f 141/120/39 144/146/39 90/113/39
f 144/146/24 148/107/24 90/113/24
f 117/205/1 116/206/1 115/207/1
f 117/208/40 144/146/40 121/209/40
f 116/210/2 120/204/2 119/145/2
f 118/211/8 121/209/8 120/204/8
f 64/1/1 6/7/1 5/2/1
f 2/4/2 59/212/2 83/5/2
f 6/7/3 4/83/3 3/8/3
f 81/9/1 67/213/1 16/10/1
f 8/12/4 12/18/4 13/13/4
f 57/15/5 8/12/5 9/14/5
f 65/17/1 11/19/1 12/18/1
f 11/19/6 10/64/6 13/13/6
f 11/19/1 65/17/1 70/20/1
f 23/22/7 16/214/7 15/23/7
f 38/25/8 14/215/8 68/26/8
f 70/20/1 72/30/1 18/28/1
f 84/29/1 65/17/1 8/12/1
f 72/30/1 74/32/1 19/31/1
f 74/32/1 76/34/1 20/33/1
f 76/34/1 78/36/1 21/35/1
f 78/36/1 80/95/1 22/37/1
f 22/37/1 80/95/1 81/9/1
f 35/38/7 32/104/7 31/39/7
f 83/5/9 59/212/9 7/41/9
f 44/43/8 43/46/8 71/44/8
f 43/46/8 42/48/8 73/47/8
f 42/48/8 41/50/8 75/49/8
f 41/50/8 40/52/8 77/51/8
f 40/52/8 39/54/8 79/53/8
f 39/54/10 38/25/10 82/27/10
f 27/55/3 20/33/3 51/56/3
f 17/58/7 18/216/7 29/59/7
f 21/35/1 52/81/1 51/56/1
f 19/61/7 20/217/7 27/62/7
f 10/64/11 45/72/11 47/65/11
f 21/67/7 22/70/7 25/68/7
f 22/70/12 23/22/12 24/24/12
f 46/71/13 48/77/13 47/65/13
f 49/73/13 50/82/13 55/74/13
f 51/56/13 52/81/13 53/76/13
f 10/64/3 11/19/3 46/71/3
f 30/66/2 47/65/2 48/77/2
f 29/78/11 56/75/11 55/74/11
f 26/80/2 53/76/2 52/81/2
f 19/31/1 50/82/1 49/73/1
f 29/78/3 18/28/3 49/73/3
f 27/55/11 54/57/11 53/76/11
f 28/79/2 55/74/2 50/82/2
f 17/21/1 48/77/1 46/71/1
f 7/41/14 44/43/14 69/45/14
f 6/7/5 57/15/5 58/16/5
f 84/29/41 36/98/41 35/38/41
f 62/3/42 61/218/42 63/84/42
f 64/1/16 63/84/16 83/85/16
f 68/86/18 67/213/18 81/9/18
f 69/88/19 70/20/19 65/17/19
f 71/90/18 72/30/18 70/20/18
f 73/91/18 74/32/18 72/30/18
f 75/92/18 76/34/18 74/32/18
f 77/93/18 78/36/18 76/34/18
f 79/94/18 80/95/18 78/36/18
f 82/87/20 81/9/20 80/95/20
f 84/29/21 83/85/21 66/89/21
f 2/4/2 63/6/2 61/96/2
f 57/15/22 37/99/22 36/98/22
f 57/15/43 6/7/43 60/40/43
f 64/1/24 35/38/24 60/40/24
f 32/100/1 34/219/1 33/101/1
f 60/40/25 31/39/25 33/103/25
f 36/98/3 34/105/3 32/104/3
f 37/99/8 33/103/8 34/105/8
f 89/106/1 90/113/1 148/107/1
f 167/109/3 143/148/3 86/110/3
f 87/112/2 88/190/2 90/113/2
f 100/114/1 151/220/1 165/115/1
f 97/117/26 96/122/26 92/118/26
f 93/119/27 92/118/27 141/120/27
f 96/122/1 95/124/1 149/123/1
f 97/117/28 94/170/28 95/124/28
f 95/124/1 101/133/1 154/125/1
f 99/126/7 100/221/7 107/127/7
f 152/129/8 98/222/8 122/130/8
f 102/132/1 156/136/1 154/125/1
f 92/118/1 149/123/1 168/134/1
f 103/135/1 158/138/1 156/136/1
f 104/137/1 160/140/1 158/138/1
f 105/139/1 162/142/1 160/140/1
f 106/141/1 164/143/1 162/142/1
f 106/141/1 107/116/1 165/115/1
f 115/144/7 116/210/7 119/145/7
f 167/109/29 150/189/29 91/147/29
f 155/149/8 127/153/8 128/150/8
f 157/152/8 126/155/8 127/153/8
f 159/154/8 125/157/8 126/155/8
f 161/156/8 124/159/8 125/157/8
f 163/158/8 123/160/8 124/159/8
f 166/131/30 122/130/30 123/160/30
f 111/161/2 138/182/2 135/162/2
f 113/163/7 102/223/7 101/164/7
f 135/162/1 136/186/1 105/139/1
f 111/166/7 104/224/7 103/167/7
f 131/169/11 129/177/11 94/170/11
f 109/172/7 106/175/7 105/173/7
f 108/128/31 107/127/31 106/175/31
f 131/169/13 132/183/13 130/176/13
f 139/178/13 134/188/13 133/179/13
f 137/181/13 136/186/13 135/162/13
f 94/170/2 129/177/2 130/176/2
f 132/183/3 131/169/3 114/171/3
f 139/178/11 140/180/11 113/184/11
f 136/186/3 137/181/3 110/187/3
f 133/179/1 134/188/1 103/135/1
f 113/184/2 140/180/2 133/179/2
f 137/181/11 138/182/11 111/161/11
f 134/188/3 139/178/3 112/185/3
f 130/176/1 132/183/1 101/133/1
f 153/151/32 128/150/32 91/147/32
f 142/121/27 141/120/27 90/113/27
f 119/145/44 120/204/44 168/134/44
f 147/191/45 145/225/45 146/108/45
f 167/192/34 147/191/34 148/107/34
f 165/115/18 151/220/18 152/193/18
f 149/123/36 154/125/36 153/195/36
f 154/125/18 156/136/18 155/197/18
f 156/136/18 158/138/18 157/198/18
f 158/138/18 160/140/18 159/199/18
f 160/140/18 162/142/18 161/200/18
f 162/142/18 164/143/18 163/201/18
f 164/143/37 165/115/37 166/194/37
f 150/196/38 167/192/38 168/134/38
f 145/202/3 147/111/3 86/110/3
f 120/204/22 121/209/22 141/120/22
f 141/120/46 121/209/46 144/146/46
f 144/146/24 119/145/24 148/107/24
f 117/205/1 118/226/1 116/206/1
f 117/208/40 115/144/40 144/146/40
f 116/210/2 118/211/2 120/204/2
f 118/211/8 117/208/8 121/209/8
