# Blender v2.78 (sub 0) OBJ File: 'trackWorld2.blend'
# www.blender.org
o Cube.001_Cube
v -1.000000 0.000000 -10.000000
v 1.000000 -0.000000 -10.000000
v -1.000000 0.000003 10.000000
v 1.000000 0.000003 10.000000
v -1.000000 5.121173 9.807852
v 0.625534 5.613651 8.986200
v -1.000000 6.997105 9.238793
v 1.000000 6.828288 8.831233
v -1.000000 8.725973 8.314693
v 1.000000 8.480888 7.947899
v -1.000000 10.241339 7.071064
v 1.000000 9.929405 6.759130
v -1.000000 11.484966 5.555696
v 1.000000 11.118172 5.310613
v -1.000000 12.409063 3.826827
v 1.000000 12.001503 3.658010
v -1.000000 12.978121 1.950895
v 1.000000 12.545457 1.864833
v -1.000000 13.170265 -0.000010
v 1.000000 12.729125 -0.000009
v -1.000000 12.978117 -1.950914
v 1.000000 12.545453 -1.864851
v -1.000000 12.409056 -3.826845
v 1.000000 12.001495 -3.658027
v -1.000000 11.484955 -5.555713
v 1.000000 11.118160 -5.310628
v -1.000000 10.241324 -7.071076
v 1.000000 9.929392 -6.759143
v -1.000000 8.725957 -8.314704
v 1.000000 8.480873 -7.947909
v -1.000000 6.997087 -9.238801
v 1.000000 6.828270 -8.831241
v -1.000000 5.121154 -9.807856
v 0.625534 5.613634 -8.986205
v -2.273345 -0.705398 12.673355
v -2.273345 0.191999 10.386300
v -2.273345 -0.705398 -12.673355
v -2.273345 0.191999 -10.386300
v 2.273345 -0.705398 12.673355
v 2.273345 0.191999 10.386300
v 2.273345 -0.705398 -12.673355
v 2.273345 0.191999 -10.386300
v 1.000000 -0.000000 -8.188716
v 1.000000 0.000002 8.188714
v 0.625534 5.512509 8.477727
v 1.000000 6.472772 7.972944
v 1.000000 7.964760 7.175459
v 1.000000 9.272499 6.102225
v 1.000000 10.345732 4.794485
v 1.000000 11.143214 3.302495
v 1.000000 11.634301 1.683593
v 1.000000 11.800120 -0.000009
v 1.000000 11.634299 -1.683611
v 1.000000 11.143208 -3.302512
v 1.000000 10.345722 -4.794500
v 1.000000 9.272487 -6.102237
v 1.000000 7.964746 -7.175470
v 1.000000 6.472756 -7.972953
v 0.625534 5.512493 -8.477732
v -1.446426 -0.000000 -8.188716
v -1.446426 0.000003 8.188714
v -1.446426 4.767808 8.031370
v -1.446426 6.303955 7.565383
v -1.446426 7.719676 6.808664
v -1.446426 8.960566 5.790292
v -1.446426 9.978937 4.549401
v -1.446426 10.735654 3.133679
v -1.446426 11.201637 1.597531
v -1.446426 11.358980 -0.000009
v -1.446426 11.201635 -1.597548
v -1.446426 10.735647 -3.133695
v -1.446426 9.978928 -4.549416
v -1.446426 8.960554 -5.790304
v -1.446426 7.719663 -6.808675
v -1.446426 6.303940 -7.565392
v -1.446426 4.767792 -8.031374
v -1.000000 -0.000000 -8.039853
v -1.000000 0.000002 8.039852
v -1.000000 4.738766 7.885367
v -1.000000 6.246987 7.427853
v -1.000000 7.636972 6.684890
v -1.000000 8.855304 5.685030
v -1.000000 9.855162 4.466698
v -1.000000 10.598124 3.076712
v -1.000000 11.055636 1.568490
v -1.000000 11.210119 -0.000008
v -1.000000 11.055634 -1.568506
v -1.000000 10.598118 -3.076728
v -1.000000 9.855154 -4.466712
v -1.000000 8.855293 -5.685042
v -1.000000 7.636960 -6.684901
v -1.000000 6.246973 -7.427861
v -1.000000 4.738751 -7.885373
v 1.000000 6.997105 9.238793
v 1.000000 5.121173 9.807852
v 1.000000 8.725973 8.314693
v 1.000000 10.241339 7.071064
v 1.000000 11.484966 5.555696
v 1.000000 12.409063 3.826827
v 1.000000 12.978121 1.950895
v 1.000000 13.170265 -0.000010
v 1.000000 12.978117 -1.950914
v 1.000000 12.409056 -3.826845
v 1.000000 11.484955 -5.555713
v 1.000000 10.241324 -7.071076
v 1.000000 8.725957 -8.314704
v 1.000000 6.997087 -9.238801
v 1.000000 5.121154 -9.807856
v 1.000000 6.303955 7.565383
v 1.000000 4.767808 8.031370
v 1.000000 7.719676 6.808664
v 1.000000 8.960566 5.790292
v 1.000000 9.978937 4.549401
v 1.000000 10.735654 3.133679
v 1.000000 11.201637 1.597531
v 1.000000 11.358980 -0.000009
v 1.000000 11.201635 -1.597548
v 1.000000 10.735647 -3.133695
v 1.000000 9.978928 -4.549416
v 1.000000 8.960554 -5.790304
v 1.000000 7.719663 -6.808675
v 1.000000 6.303940 -7.565392
v 1.000000 4.767792 -8.031374
v 0.625534 6.749729 8.641575
v 1.000000 5.457255 9.247131
v 0.625534 8.366838 7.777211
v 0.625534 9.784247 6.613972
v 0.625534 10.947484 5.196563
v 0.625534 11.811845 3.579451
v 0.625535 12.344116 1.824784
v 0.625535 12.523840 -0.000009
v 0.625535 12.344112 -1.824802
v 0.625534 11.811837 -3.579468
v 0.625534 10.947473 -5.196578
v 0.625534 9.784234 -6.613985
v 0.625534 8.366823 -7.777221
v 0.625534 6.749711 -8.641582
v 1.000000 5.457237 -9.247136
v 0.625534 6.551331 8.162602
v 1.000000 5.276015 8.335978
v 0.625534 8.078810 7.346147
v 0.625534 9.417658 6.247383
v 0.625534 10.516419 4.908535
v 0.625534 11.332872 3.381054
v 0.625534 11.835642 1.723642
v 0.625534 12.005405 -0.000009
v 0.625534 11.835640 -1.723660
v 0.625534 11.332866 -3.381072
v 0.625534 10.516410 -4.908551
v 0.625534 9.417645 -6.247396
v 0.625534 8.078796 -7.346159
v 0.625534 6.551314 -8.162611
v 1.000000 5.275999 -8.335982
vt 0.7593 0.0506
vt 0.7009 0.2003
vt 0.7009 0.0506
vt 0.0548 0.1421
vt 0.0964 0.1846
vt 0.0548 0.1846
vt 0.0964 0.1421
vt 0.1381 0.1846
vt 0.1381 0.1421
vt 0.1797 0.1846
vt 0.1797 0.1421
vt 0.2213 0.1846
vt 0.2213 0.1421
vt 0.2630 0.1846
vt 0.2630 0.1421
vt 0.3046 0.1846
vt 0.3046 0.1421
vt 0.3462 0.1846
vt 0.3462 0.1421
vt 0.3878 0.1846
vt 0.3878 0.1421
vt 0.4295 0.1846
vt 0.4295 0.1421
vt 0.4711 0.1846
vt 0.4711 0.1421
vt 0.5127 0.1846
vt 0.5127 0.1421
vt 0.5543 0.1846
vt 0.5543 0.1421
vt 0.5960 0.1846
vt 0.5077 0.9485
vt 0.4295 0.9198
vt 0.5075 0.9252
vt 0.6376 0.1421
vt 0.6376 0.1846
vt 0.7598 0.2003
vt 0.8182 0.0506
vt 0.8182 0.2003
vt 0.1399 0.4500
vt 0.9808 0.4838
vt 0.0295 0.4838
vt 0.8805 0.4491
vt 0.9881 0.2517
vt 0.8777 0.2855
vt 0.0368 0.2517
vt 0.1371 0.2864
vt 0.4923 0.1136
vt 0.5264 0.0617
vt 0.5264 0.1136
vt 0.1370 0.8000
vt 0.2133 0.8332
vt 0.1998 0.8521
vt 0.8717 0.7961
vt 0.7978 0.8298
vt 0.8555 0.7800
vt 0.5892 0.9415
vt 0.5854 0.9184
vt 0.2702 0.8940
vt 0.2805 0.8732
vt 0.9220 0.7364
vt 0.9041 0.7237
vt 0.4378 0.5345
vt 0.4758 0.6372
vt 0.4378 0.6433
vt 0.6682 0.9217
vt 0.6610 0.9001
vt 0.3462 0.9245
vt 0.3532 0.9023
vt 0.9433 0.6973
vt 0.9268 0.6900
vt 0.0609 0.6997
vt 0.1020 0.7262
vt 0.0840 0.7397
vt 0.7428 0.8905
vt 0.7322 0.8699
vt 0.4260 0.9428
vt 0.5150 0.5345
vt 0.4770 0.6372
vt 0.4766 0.5359
vt 0.1532 0.7834
vt 0.8110 0.8480
vt 0.0492 0.1136
vt 0.0833 0.0617
vt 0.0833 0.1136
vt 0.9052 0.1524
vt 0.8532 0.0511
vt 0.9052 0.0511
vt 0.1174 0.0617
vt 0.1174 0.1136
vt 0.1515 0.0617
vt 0.1515 0.1136
vt 0.1856 0.0617
vt 0.1856 0.1136
vt 0.2196 0.0617
vt 0.2196 0.1136
vt 0.2537 0.0617
vt 0.2537 0.1136
vt 0.2878 0.0617
vt 0.2878 0.1136
vt 0.3219 0.0617
vt 0.3219 0.1136
vt 0.3560 0.0617
vt 0.3560 0.1136
vt 0.3901 0.0617
vt 0.3901 0.1136
vt 0.4242 0.0617
vt 0.4242 0.1136
vt 0.4583 0.0617
vt 0.4583 0.1136
vt 0.4923 0.0617
vt 0.5489 0.0156
vt 0.6009 0.1169
vt 0.5489 0.1169
vt 0.7750 0.7290
vt 0.7611 0.6348
vt 0.8200 0.6742
vt 0.2639 0.7290
vt 0.2779 0.6348
vt 0.3140 0.6789
vt 0.4490 0.8279
vt 0.5195 0.7640
vt 0.5195 0.8348
vt 0.7203 0.7739
vt 0.7249 0.6789
vt 0.1856 0.6117
vt 0.2190 0.6742
vt 0.6675 0.0156
vt 0.6264 0.1179
vt 0.6260 0.0172
vt 0.3812 0.8073
vt 0.4628 0.7584
vt 0.6578 0.8073
vt 0.6809 0.7150
vt 0.1650 0.5439
vt 0.2510 0.5846
vt 0.8534 0.6117
vt 0.8045 0.5301
vt 0.8740 0.5439
vt 0.3580 0.7150
vt 0.4083 0.7419
vt 0.5900 0.8279
vt 0.6307 0.7419
vt 0.3959 0.5345
vt 0.4370 0.6367
vt 0.3959 0.6433
vt 0.7879 0.5846
vt 0.3187 0.7739
vt 0.5762 0.7584
vt 0.0393 0.6927
vt 0.0528 0.7615
vt 0.0106 0.6836
vt 0.1236 0.8137
vt 0.0680 0.7508
vt 0.1888 0.8678
vt 0.1098 0.8277
vt 0.2529 0.9289
vt 0.1773 0.8839
vt 0.3405 0.9429
vt 0.2617 0.9113
vt 0.4232 0.9618
vt 0.3345 0.9617
vt 0.5080 0.9874
vt 0.4203 0.9813
vt 0.5924 0.9604
vt 0.5079 0.9677
vt 0.6804 0.9584
vt 0.5956 0.9798
vt 0.7516 0.9073
vt 0.6742 0.9398
vt 0.8222 0.8631
vt 0.7605 0.9246
vt 0.8850 0.8092
vt 0.8336 0.8787
vt 0.9524 0.7567
vt 0.8986 0.8226
vt 0.9641 0.6902
vt 0.9373 0.7466
vt 0.0806 0.6690
vt 0.1314 0.7019
vt 0.1169 0.7140
vt 0.1664 0.7696
vt 0.1801 0.7553
vt 0.2357 0.8013
vt 0.2243 0.8175
vt 0.2978 0.8382
vt 0.2890 0.8560
vt 0.3648 0.8650
vt 0.3589 0.8840
vt 0.4352 0.8812
vt 0.4323 0.9008
vt 0.5072 0.8862
vt 0.5074 0.9060
vt 0.5791 0.8800
vt 0.5823 0.8995
vt 0.6550 0.8820
vt 0.6489 0.8633
vt 0.7147 0.8358
vt 0.7236 0.8531
vt 0.7867 0.8146
vt 0.7753 0.7989
vt 0.8289 0.7532
vt 0.8424 0.7669
vt 0.8752 0.7007
vt 0.8897 0.7123
vt 0.9238 0.6680
vt 0.9173 0.6428
vt 0.0868 0.6428
vt 0.9917 0.6808
vt 0.0779 0.6918
vt 0.7593 0.2003
vt 0.5960 0.1421
vt 0.7598 0.0506
vt 0.4762 0.5359
vt 0.5150 0.6433
vt 0.0492 0.0617
vt 0.8532 0.1524
vt 0.6009 0.0156
vt 0.6675 0.1244
vt 0.2345 0.5301
vt 0.4375 0.5360
vn 0.0000 0.0375 0.9993
vn 0.0000 0.2903 0.9569
vn 0.0000 0.4714 0.8819
vn 0.0000 0.6344 0.7730
vn 0.0000 0.7730 0.6344
vn 0.0000 0.8819 0.4714
vn 0.0000 0.9569 0.2903
vn 0.0000 0.9952 0.0980
vn 0.0000 0.9952 -0.0980
vn 0.0000 0.9569 -0.2903
vn 0.0000 0.8819 -0.4714
vn 0.0000 0.7730 -0.6344
vn 0.0000 0.6344 -0.7730
vn 0.0000 0.4714 -0.8819
vn 1.0000 0.0000 -0.0000
vn 0.0000 0.2903 -0.9569
vn 0.0000 0.0375 -0.9993
vn -1.0000 0.0000 0.0000
vn 0.0000 0.9309 -0.3653
vn 0.0000 0.9309 0.3653
vn 0.0000 1.0000 0.0000
vn 0.0000 -0.2903 0.9569
vn 0.0000 -0.2903 -0.9569
vn -0.0000 -0.0330 0.9995
vn 0.0000 -0.4714 -0.8819
vn 0.0000 -0.6344 -0.7730
vn 0.0000 -0.7730 -0.6344
vn 0.0000 -0.8819 -0.4714
vn 0.0000 -0.9569 -0.2903
vn 0.0000 -0.9952 -0.0980
vn 0.0000 -0.9952 0.0980
vn 0.0000 -0.9569 0.2903
vn 0.0000 -0.8819 0.4714
vn 0.0000 -0.7730 0.6344
vn 0.0000 -0.6344 0.7730
vn 0.0000 -0.4714 0.8819
vn 0.0000 -0.0330 -0.9995
vn 0.4789 -0.2548 -0.8401
vn 0.4789 -0.4138 -0.7742
vn 0.4789 -0.5569 -0.6786
vn 0.4789 -0.6786 -0.5569
vn 0.4789 -0.7742 -0.4138
vn 0.4789 -0.8401 -0.2548
vn 0.4789 -0.8736 -0.0860
vn 0.4789 -0.8736 0.0860
vn 0.4789 -0.8401 0.2548
vn 0.4789 -0.7742 0.4138
vn 0.4789 -0.6786 0.5569
vn 0.4789 -0.5569 0.6786
vn 0.4789 -0.4138 0.7742
vn 0.4789 -0.2548 0.8401
vn 0.4789 0.2548 0.8401
vn 0.4789 0.4138 0.7742
vn 0.4789 0.5569 0.6786
vn 0.4789 0.6786 0.5569
vn 0.4789 0.7742 0.4138
vn 0.4789 0.8401 0.2548
vn 0.4789 0.8736 0.0860
vn 0.4789 0.8736 -0.0860
vn 0.4789 0.8401 -0.2548
vn 0.4789 0.7742 -0.4138
vn 0.4789 0.6786 -0.5569
vn 0.4789 0.5569 -0.6786
vn 0.4789 0.4138 -0.7742
vn 0.4789 0.2548 -0.8401
vn 0.4789 0.8610 -0.1713
vn 0.4789 0.8610 0.1713
s off
f 4/1/1 5/2/1 3/3/1
f 95/4/2 7/5/2 5/6/2
f 94/7/3 9/8/3 7/5/3
f 96/9/4 11/10/4 9/8/4
f 97/11/5 13/12/5 11/10/5
f 98/13/6 15/14/6 13/12/6
f 99/15/7 17/16/7 15/14/7
f 100/17/8 19/18/8 17/16/8
f 101/19/9 21/20/9 19/18/9
f 102/21/10 23/22/10 21/20/10
f 103/23/11 25/24/11 23/22/11
f 104/25/12 27/26/12 25/24/12
f 105/27/13 29/28/13 27/26/13
f 106/29/14 31/30/14 29/28/14
f 131/31/15 145/32/15 146/33/15
f 31/30/16 108/34/16 33/35/16
f 108/36/17 1/37/17 33/38/17
f 36/39/18 37/40/18 35/41/18
f 38/42/19 41/43/19 37/40/19
f 42/44/15 39/45/15 41/43/15
f 40/46/20 35/41/20 39/45/20
f 38/42/21 40/46/21 42/44/21
f 122/47/22 76/48/22 123/49/22
f 126/50/15 142/51/15 127/52/15
f 136/53/15 150/54/15 151/55/15
f 132/56/15 146/33/15 147/57/15
f 128/58/15 142/51/15 143/59/15
f 137/60/15 151/55/15 152/61/15
f 4/62/15 110/63/15 95/64/15
f 133/65/15 147/57/15 148/66/15
f 129/67/15 143/59/15 144/68/15
f 34/69/15 152/61/15 59/70/15
f 6/71/15 139/72/15 124/73/15
f 134/74/15 148/66/15 149/75/15
f 130/76/15 144/68/15 145/32/15
f 2/77/15 123/78/15 43/79/15
f 124/73/15 141/80/15 126/50/15
f 135/81/15 149/75/15 150/54/15
f 110/82/23 63/83/23 109/84/23
f 123/85/24 60/86/24 43/87/24
f 109/84/25 64/88/25 111/89/25
f 111/89/26 65/90/26 112/91/26
f 112/91/27 66/92/27 113/93/27
f 113/93/28 67/94/28 114/95/28
f 114/95/29 68/96/29 115/97/29
f 115/97/30 69/98/30 116/99/30
f 116/99/31 70/100/31 117/101/31
f 117/101/32 71/102/32 118/103/32
f 118/103/33 72/104/33 119/105/33
f 119/105/34 73/106/34 120/107/34
f 120/107/35 74/108/35 121/109/35
f 121/109/36 75/110/36 122/47/36
f 44/111/37 62/112/37 110/113/37
f 11/114/18 81/115/18 9/116/18
f 27/117/18 91/118/18 90/119/18
f 21/120/18 86/121/18 19/122/18
f 13/123/18 82/124/18 11/114/18
f 31/125/18 91/118/18 29/126/18
f 3/127/18 79/128/18 78/129/18
f 23/130/18 87/131/18 21/120/18
f 15/132/18 83/133/18 13/123/18
f 33/134/18 92/135/18 31/125/18
f 7/136/18 79/137/18 5/138/18
f 23/130/18 89/139/18 88/140/18
f 17/141/18 84/142/18 15/132/18
f 1/143/18 93/144/18 33/145/18
f 9/116/18 80/146/18 7/136/18
f 27/117/18 89/139/18 25/147/18
f 19/122/18 85/148/18 17/141/18
f 125/149/15 94/150/15 95/151/15
f 10/152/15 94/150/15 8/153/15
f 12/154/15 96/155/15 10/152/15
f 12/154/15 98/156/15 97/157/15
f 16/158/15 98/156/15 14/159/15
f 18/160/15 99/161/15 16/158/15
f 18/160/15 101/162/15 100/163/15
f 22/164/15 101/162/15 20/165/15
f 22/164/15 103/166/15 102/167/15
f 26/168/15 103/166/15 24/169/15
f 28/170/15 104/171/15 26/168/15
f 30/172/15 105/173/15 28/170/15
f 30/172/15 107/174/15 106/175/15
f 138/176/15 107/174/15 32/177/15
f 140/178/15 109/179/15 46/180/15
f 47/181/15 109/179/15 111/182/15
f 47/181/15 112/183/15 48/184/15
f 48/184/15 113/185/15 49/186/15
f 49/186/15 114/187/15 50/188/15
f 50/188/15 115/189/15 51/190/15
f 51/190/15 116/191/15 52/192/15
f 52/192/15 117/193/15 53/194/15
f 54/195/15 117/193/15 118/196/15
f 54/195/15 119/197/15 55/198/15
f 56/199/15 119/197/15 120/200/15
f 56/199/15 121/201/15 57/202/15
f 57/202/15 122/203/15 58/204/15
f 153/205/15 122/203/15 123/206/15
f 125/149/15 110/207/15 140/178/15
f 138/176/15 123/206/15 108/208/15
f 6/71/38 8/153/38 125/149/38
f 124/73/39 10/152/39 8/153/39
f 126/50/40 12/154/40 10/152/40
f 127/52/41 14/159/41 12/154/41
f 128/58/42 16/158/42 14/159/42
f 129/67/43 18/160/43 16/158/43
f 131/31/44 18/160/44 130/76/44
f 131/31/45 22/164/45 20/165/45
f 133/65/46 22/164/46 132/56/46
f 134/74/47 24/169/47 133/65/47
f 134/74/48 28/170/48 26/168/48
f 135/81/49 30/172/49 28/170/49
f 137/60/50 30/172/50 136/53/50
f 34/69/51 32/177/51 137/60/51
f 45/209/52 46/180/52 139/72/52
f 139/72/53 47/181/53 141/80/53
f 141/80/54 48/184/54 142/51/54
f 142/51/55 49/186/55 143/59/55
f 144/68/56 49/186/56 50/188/56
f 145/32/57 50/188/57 51/190/57
f 146/33/58 51/190/58 52/192/58
f 146/33/59 53/194/59 147/57/59
f 147/57/60 54/195/60 148/66/60
f 148/66/61 55/198/61 149/75/61
f 150/54/62 55/198/62 56/199/62
f 150/54/63 57/202/63 151/55/63
f 151/55/64 58/204/64 152/61/64
f 59/70/65 58/204/65 153/205/65
f 6/71/66 140/178/66 45/209/66
f 34/69/67 153/205/67 138/176/67
f 4/1/1 95/210/1 5/2/1
f 95/4/2 94/7/2 7/5/2
f 94/7/3 96/9/3 9/8/3
f 96/9/4 97/11/4 11/10/4
f 97/11/5 98/13/5 13/12/5
f 98/13/6 99/15/6 15/14/6
f 99/15/7 100/17/7 17/16/7
f 100/17/8 101/19/8 19/18/8
f 101/19/9 102/21/9 21/20/9
f 102/21/10 103/23/10 23/22/10
f 103/23/11 104/25/11 25/24/11
f 104/25/12 105/27/12 27/26/12
f 105/27/13 106/29/13 29/28/13
f 106/29/14 107/211/14 31/30/14
f 131/31/15 130/76/15 145/32/15
f 31/30/16 107/211/16 108/34/16
f 108/36/17 2/212/17 1/37/17
f 36/39/18 38/42/18 37/40/18
f 38/42/19 42/44/19 41/43/19
f 42/44/15 40/46/15 39/45/15
f 40/46/20 36/39/20 35/41/20
f 38/42/21 36/39/21 40/46/21
f 122/47/22 75/110/22 76/48/22
f 126/50/15 141/80/15 142/51/15
f 136/53/15 135/81/15 150/54/15
f 132/56/15 131/31/15 146/33/15
f 128/58/15 127/52/15 142/51/15
f 137/60/15 136/53/15 151/55/15
f 4/62/15 44/213/15 110/63/15
f 133/65/15 132/56/15 147/57/15
f 129/67/15 128/58/15 143/59/15
f 34/69/15 137/60/15 152/61/15
f 6/71/15 45/209/15 139/72/15
f 134/74/15 133/65/15 148/66/15
f 130/76/15 129/67/15 144/68/15
f 2/77/15 108/214/15 123/78/15
f 124/73/15 139/72/15 141/80/15
f 135/81/15 134/74/15 149/75/15
f 110/82/23 62/215/23 63/83/23
f 123/85/24 76/216/24 60/86/24
f 109/84/25 63/83/25 64/88/25
f 111/89/26 64/88/26 65/90/26
f 112/91/27 65/90/27 66/92/27
f 113/93/28 66/92/28 67/94/28
f 114/95/29 67/94/29 68/96/29
f 115/97/30 68/96/30 69/98/30
f 116/99/31 69/98/31 70/100/31
f 117/101/32 70/100/32 71/102/32
f 118/103/33 71/102/33 72/104/33
f 119/105/34 72/104/34 73/106/34
f 120/107/35 73/106/35 74/108/35
f 121/109/36 74/108/36 75/110/36
f 44/111/37 61/217/37 62/112/37
f 11/114/18 82/124/18 81/115/18
f 27/117/18 29/126/18 91/118/18
f 21/120/18 87/131/18 86/121/18
f 13/123/18 83/133/18 82/124/18
f 31/125/18 92/135/18 91/118/18
f 3/127/18 5/218/18 79/128/18
f 23/130/18 88/140/18 87/131/18
f 15/132/18 84/142/18 83/133/18
f 33/134/18 93/219/18 92/135/18
f 7/136/18 80/146/18 79/137/18
f 23/130/18 25/147/18 89/139/18
f 17/141/18 85/148/18 84/142/18
f 1/143/18 77/220/18 93/144/18
f 9/116/18 81/115/18 80/146/18
f 27/117/18 90/119/18 89/139/18
f 19/122/18 86/121/18 85/148/18
f 125/149/15 8/153/15 94/150/15
f 10/152/15 96/155/15 94/150/15
f 12/154/15 97/157/15 96/155/15
f 12/154/15 14/159/15 98/156/15
f 16/158/15 99/161/15 98/156/15
f 18/160/15 100/163/15 99/161/15
f 18/160/15 20/165/15 101/162/15
f 22/164/15 102/167/15 101/162/15
f 22/164/15 24/169/15 103/166/15
f 26/168/15 104/171/15 103/166/15
f 28/170/15 105/173/15 104/171/15
f 30/172/15 106/175/15 105/173/15
f 30/172/15 32/177/15 107/174/15
f 138/176/15 108/208/15 107/174/15
f 140/178/15 110/207/15 109/179/15
f 47/181/15 46/180/15 109/179/15
f 47/181/15 111/182/15 112/183/15
f 48/184/15 112/183/15 113/185/15
f 49/186/15 113/185/15 114/187/15
f 50/188/15 114/187/15 115/189/15
f 51/190/15 115/189/15 116/191/15
f 52/192/15 116/191/15 117/193/15
f 54/195/15 53/194/15 117/193/15
f 54/195/15 118/196/15 119/197/15
f 56/199/15 55/198/15 119/197/15
f 56/199/15 120/200/15 121/201/15
f 57/202/15 121/201/15 122/203/15
f 153/205/15 58/204/15 122/203/15
f 125/149/15 95/151/15 110/207/15
f 138/176/15 153/205/15 123/206/15
f 6/71/38 124/73/38 8/153/38
f 124/73/39 126/50/39 10/152/39
f 126/50/40 127/52/40 12/154/40
f 127/52/41 128/58/41 14/159/41
f 128/58/42 129/67/42 16/158/42
f 129/67/43 130/76/43 18/160/43
f 131/31/44 20/165/44 18/160/44
f 131/31/45 132/56/45 22/164/45
f 133/65/46 24/169/46 22/164/46
f 134/74/47 26/168/47 24/169/47
f 134/74/48 135/81/48 28/170/48
f 135/81/49 136/53/49 30/172/49
f 137/60/50 32/177/50 30/172/50
f 34/69/51 138/176/51 32/177/51
f 45/209/52 140/178/52 46/180/52
f 139/72/53 46/180/53 47/181/53
f 141/80/54 47/181/54 48/184/54
f 142/51/55 48/184/55 49/186/55
f 144/68/56 143/59/56 49/186/56
f 145/32/57 144/68/57 50/188/57
f 146/33/58 145/32/58 51/190/58
f 146/33/59 52/192/59 53/194/59
f 147/57/60 53/194/60 54/195/60
f 148/66/61 54/195/61 55/198/61
f 150/54/62 149/75/62 55/198/62
f 150/54/63 56/199/63 57/202/63
f 151/55/64 57/202/64 58/204/64
f 59/70/65 152/61/65 58/204/65
f 6/71/66 125/149/66 140/178/66
f 34/69/67 59/70/67 153/205/67
